<svg width="24" height="25" viewBox="0 0 24 25" fill="none" xmlns="http://www.w3.org/2000/svg">
<path fill-rule="evenodd" clip-rule="evenodd" d="M7.91577 20.1158C7.63227 19.8322 7.47301 19.4477 7.47301 19.0467C7.47301 18.6457 7.63227 18.2611 7.91577 17.9775L12.8956 12.9977L7.91577 8.01793C7.77134 7.87843 7.65613 7.71157 7.57688 7.52707C7.49762 7.34257 7.4559 7.14413 7.45416 6.94334C7.45241 6.74254 7.49068 6.54341 7.56671 6.35757C7.64275 6.17172 7.75504 6.00287 7.89703 5.86089C8.03901 5.7189 8.20786 5.60661 8.39371 5.53057C8.57955 5.45454 8.77869 5.41627 8.97948 5.41802C9.18027 5.41976 9.37871 5.46148 9.56321 5.54073C9.74771 5.61999 9.91457 5.7352 10.0541 5.87963L16.103 11.9286C16.3865 12.2122 16.5458 12.5967 16.5458 12.9977C16.5458 13.3987 16.3865 13.7833 16.103 14.0669L10.0541 20.1158C9.77049 20.3993 9.38591 20.5586 8.98492 20.5586C8.58393 20.5586 8.19936 20.3993 7.91577 20.1158Z" fill="white"/>
</svg>
