<svg width="51" height="51" viewBox="0 0 51 51" fill="none" xmlns="http://www.w3.org/2000/svg">
<path d="M44.7103 28.4995C38.7529 30.9083 32.3861 32.1428 25.9603 32.1349C19.329 32.1349 13.0019 30.8433 7.21027 28.4995M25.9603 25.8849H25.9811M34.2936 13.3849V9.21827C34.2936 8.1132 33.8546 7.05339 33.0732 6.27199C32.2918 5.49059 31.232 5.05161 30.1269 5.05161H21.7936C20.6885 5.05161 19.6287 5.49059 18.8473 6.27199C18.0659 7.05339 17.6269 8.1132 17.6269 9.21827V13.3849H34.2936ZM11.3769 42.5516H40.5436C41.6487 42.5516 42.7085 42.1126 43.4899 41.3312C44.2713 40.5498 44.7103 39.49 44.7103 38.3849V17.5516C44.7103 16.4465 44.2713 15.3867 43.4899 14.6053C42.7085 13.8239 41.6487 13.3849 40.5436 13.3849H11.3769C10.2719 13.3849 9.21206 13.8239 8.43065 14.6053C7.64925 15.3867 7.21027 16.4465 7.21027 17.5516V38.3849C7.21027 39.49 7.64925 40.5498 8.43065 41.3312C9.21206 42.1126 10.2719 42.5516 11.3769 42.5516Z" stroke="url(#paint0_linear_581_1520)" stroke-width="2" stroke-linecap="round" stroke-linejoin="round"/>
<defs>
<linearGradient id="paint0_linear_581_1520" x1="7.21027" y1="5.05161" x2="44.7103" y2="42.5516" gradientUnits="userSpaceOnUse">
<stop stop-color="#69E4A3"/>
<stop offset="0.5625" stop-color="#D2E66A"/>
<stop offset="1" stop-color="#FDE753"/>
</linearGradient>
</defs>
</svg>
