<svg width="26" height="27" viewBox="0 0 26 27" fill="none" xmlns="http://www.w3.org/2000/svg">
<path d="M16.5206 18.2505L18.3406 16.4305C18.5842 16.1868 18.8939 16.02 19.2315 15.9507C19.569 15.8814 19.9194 15.9126 20.2394 16.0405L22.4559 16.9278C22.7826 17.0585 23.0626 17.2841 23.2598 17.5755C23.4571 17.8668 23.5625 18.2106 23.5625 18.5625V22.5933C23.5631 22.8329 23.5147 23.0701 23.4205 23.2903C23.3262 23.5106 23.188 23.7093 23.0143 23.8742C22.8405 24.0392 22.635 24.167 22.4101 24.2498C22.1853 24.3326 21.946 24.3686 21.7067 24.3556C6.17012 23.3888 3.03225 10.2295 2.44969 5.19039C2.42147 4.94404 2.44573 4.6945 2.52087 4.4582C2.59601 4.22189 2.72033 4.00418 2.88565 3.81936C3.05097 3.63455 3.25354 3.48683 3.48005 3.38592C3.70655 3.28501 3.95185 3.2332 4.19981 3.23389H8.15912C8.51099 3.23388 8.85479 3.3393 9.14618 3.53655C9.43756 3.7338 9.66316 4.01383 9.79387 4.34052L10.6803 6.55702C10.8082 6.87696 10.8395 7.22741 10.7701 7.56493C10.7008 7.90245 10.534 8.21221 10.2903 8.45583L8.47031 10.2758C8.47031 10.2758 9.47944 17.3706 16.5206 18.2505Z" fill="url(#paint0_linear_148_465)"/>
<path d="M16.25 4.04639V5.67139H19.9761L14.625 11.0225L15.7739 12.1714L21.125 6.82026V10.5464H22.75V4.04639H16.25Z" fill="url(#paint1_linear_148_465)"/>
<defs>
<linearGradient id="paint0_linear_148_465" x1="2.43828" y1="3.23389" x2="25.9524" y2="21.2368" gradientUnits="userSpaceOnUse">
<stop stop-color="#D6D6D6"/>
<stop offset="1" stop-color="#F4F4F4"/>
</linearGradient>
<linearGradient id="paint1_linear_148_465" x1="14.625" y1="4.04639" x2="23.6692" y2="10.9708" gradientUnits="userSpaceOnUse">
<stop stop-color="#D6D6D6"/>
<stop offset="1" stop-color="#F4F4F4"/>
</linearGradient>
</defs>
</svg>
