<svg width="23" height="23" viewBox="0 0 23 23" fill="none" xmlns="http://www.w3.org/2000/svg">
<path fill-rule="evenodd" clip-rule="evenodd" d="M6.2061 8.43445C6.41238 8.22823 6.69212 8.11238 6.9838 8.11238C7.27548 8.11238 7.55522 8.22823 7.7615 8.43445L11.3838 12.0568L15.0061 8.43445C15.1076 8.32939 15.2289 8.24559 15.3632 8.18794C15.4974 8.13029 15.6417 8.09994 15.7878 8.09867C15.9338 8.09741 16.0787 8.12524 16.2138 8.18055C16.349 8.23585 16.4719 8.31753 16.5751 8.42082C16.6784 8.5241 16.7601 8.64691 16.8154 8.7821C16.8707 8.91729 16.8985 9.06213 16.8973 9.20819C16.896 9.35425 16.8657 9.49859 16.808 9.63279C16.7504 9.767 16.6666 9.88838 16.5615 9.98985L12.1615 14.3898C11.9552 14.5961 11.6755 14.7119 11.3838 14.7119C11.0921 14.7119 10.8124 14.5961 10.6061 14.3898L6.2061 9.98985C5.99988 9.78357 5.88403 9.50383 5.88403 9.21215C5.88403 8.92047 5.99988 8.64073 6.2061 8.43445Z" fill="white"/>
</svg>
