<svg width="50" height="80" viewBox="0 0 50 80" fill="none" xmlns="http://www.w3.org/2000/svg">
<g clip-path="url(#clip0_161_392)">
<path d="M17.6307 47.6537C21.6985 47.6537 25 44.3522 25 40.2844V32.915H17.6307C13.5628 32.915 10.2614 36.2165 10.2614 40.2844C10.2614 44.3522 13.5628 47.6537 17.6307 47.6537Z" fill="#0ACF83"/>
<path d="M10.2614 25.5461C10.2614 21.4782 13.5628 18.1768 17.6307 18.1768H25V32.9154H17.6307C13.5628 32.9154 10.2614 29.6139 10.2614 25.5461Z" fill="#A259FF"/>
<path d="M10.2613 10.8073C10.2613 6.73944 13.5627 3.43799 17.6306 3.43799H24.9999V18.1766H17.6306C13.5627 18.1766 10.2613 14.8752 10.2613 10.8073Z" fill="#F24E1E"/>
<path d="M24.9998 3.43799H32.3691C36.437 3.43799 39.7384 6.73944 39.7384 10.8073C39.7384 14.8752 36.437 18.1766 32.3691 18.1766H24.9998V3.43799Z" fill="#FF7262"/>
<path d="M39.7384 25.5461C39.7384 29.6139 36.437 32.9154 32.3691 32.9154C28.3013 32.9154 24.9998 29.6139 24.9998 25.5461C24.9998 21.4782 28.3013 18.1768 32.3691 18.1768C36.437 18.1768 39.7384 21.4782 39.7384 25.5461Z" fill="#1ABCFE"/>
</g>
<path d="M9.648 65.7539H4.688V69.3859H9.44V70.7939H4.688V75.5459H3.2V64.3459H9.648V65.7539ZM12.01 66.0899C11.7433 66.0899 11.5193 65.9992 11.338 65.8179C11.1567 65.6366 11.066 65.4179 11.066 65.1619C11.066 64.9059 11.1567 64.6872 11.338 64.5059C11.5193 64.3139 11.7433 64.2179 12.01 64.2179C12.266 64.2179 12.4847 64.3139 12.666 64.5059C12.8473 64.6872 12.938 64.9059 12.938 65.1619C12.938 65.4179 12.8473 65.6366 12.666 65.8179C12.4847 65.9992 12.266 66.0899 12.01 66.0899ZM11.306 75.5459V67.5459H12.698V75.5459H11.306ZM21.4616 67.5459H22.8376V75.2099C22.8376 76.3939 22.4376 77.3112 21.6376 77.9619C20.8376 78.6232 19.8776 78.9539 18.7576 78.9539C17.8616 78.9539 17.0883 78.7832 16.4376 78.4419C15.787 78.1112 15.2963 77.6312 14.9656 77.0019L16.1816 76.3139C16.619 77.2099 17.4883 77.6579 18.7896 77.6579C19.6216 77.6579 20.2723 77.4392 20.7416 77.0019C21.2216 76.5646 21.4616 75.9672 21.4616 75.2099V74.0739C20.7576 75.1406 19.755 75.6739 18.4536 75.6739C17.3123 75.6739 16.347 75.2686 15.5576 74.4579C14.7683 73.6472 14.3736 72.6606 14.3736 71.4979C14.3736 70.3352 14.7683 69.3539 15.5576 68.5539C16.347 67.7432 17.3123 67.3379 18.4536 67.3379C19.7656 67.3379 20.7683 67.8659 21.4616 68.9219V67.5459ZM16.5816 73.5299C17.1256 74.0739 17.803 74.3459 18.6136 74.3459C19.4243 74.3459 20.1016 74.0739 20.6456 73.5299C21.1896 72.9859 21.4616 72.3086 21.4616 71.4979C21.4616 70.6979 21.1896 70.0259 20.6456 69.4819C20.1016 68.9379 19.4243 68.6659 18.6136 68.6659C17.803 68.6659 17.1256 68.9379 16.5816 69.4819C16.0376 70.0259 15.7656 70.6979 15.7656 71.4979C15.7656 72.3086 16.0376 72.9859 16.5816 73.5299ZM33.5866 67.3379C34.4826 67.3379 35.208 67.6312 35.7626 68.2179C36.3173 68.7939 36.5946 69.5779 36.5946 70.5699V75.5459H35.2026V70.6179C35.2026 69.9992 35.0426 69.5192 34.7226 69.1779C34.4026 68.8366 33.976 68.6659 33.4426 68.6659C32.8453 68.6659 32.3653 68.8686 32.0026 69.2739C31.6506 69.6686 31.4746 70.2766 31.4746 71.0979V75.5459H30.0826V70.6179C30.0826 69.9992 29.928 69.5192 29.6186 69.1779C29.32 68.8366 28.9093 68.6659 28.3866 68.6659C27.8 68.6659 27.3093 68.8686 26.9146 69.2739C26.5306 69.6792 26.3386 70.2872 26.3386 71.0979V75.5459H24.9466V67.5459H26.3386V68.6179C26.8826 67.7646 27.6773 67.3379 28.7226 67.3379C29.8 67.3379 30.584 67.7912 31.0746 68.6979C31.6293 67.7912 32.4666 67.3379 33.5866 67.3379ZM45.1488 67.5459H46.5408V75.5459H45.1488V74.1699C44.4554 75.2259 43.4474 75.7539 42.1248 75.7539C41.0048 75.7539 40.0501 75.3486 39.2608 74.5379C38.4714 73.7166 38.0768 72.7192 38.0768 71.5459C38.0768 70.3726 38.4714 69.3806 39.2608 68.5699C40.0501 67.7486 41.0048 67.3379 42.1248 67.3379C43.4474 67.3379 44.4554 67.8659 45.1488 68.9219V67.5459ZM42.3008 74.4099C43.1114 74.4099 43.7888 74.1379 44.3328 73.5939C44.8768 73.0392 45.1488 72.3566 45.1488 71.5459C45.1488 70.7352 44.8768 70.0579 44.3328 69.5139C43.7888 68.9592 43.1114 68.6819 42.3008 68.6819C41.5008 68.6819 40.8288 68.9592 40.2848 69.5139C39.7408 70.0579 39.4688 70.7352 39.4688 71.5459C39.4688 72.3566 39.7408 73.0392 40.2848 73.5939C40.8288 74.1379 41.5008 74.4099 42.3008 74.4099Z" fill="white" fill-opacity="0.68"/>
<defs>
<clipPath id="clip0_161_392">
<rect width="50" height="50" fill="white" transform="translate(0 0.545898)"/>
</clipPath>
</defs>
</svg>
