<svg width="136" height="72" viewBox="0 0 136 72" fill="none" xmlns="http://www.w3.org/2000/svg">
<g filter="url(#filter0_d_581_1032)">
<path d="M41.0926 52.3697C41.0926 43.246 48.4889 35.8498 57.6125 35.8498H129.548C130.562 35.8498 131.384 36.6716 131.384 37.6854V46.8631C131.384 55.9868 123.988 63.383 114.864 63.383H42.9282C41.9145 63.383 41.0926 62.5612 41.0926 61.5474V52.3697Z" fill="#A854D4"/>
<path d="M4 24.0194V0.616211H8.12997V24.0194C8.12997 25.1207 8.25234 26.0232 8.49708 26.7268C8.77241 27.3998 9.18541 27.8893 9.73607 28.1952C10.2867 28.4706 10.8221 28.6541 11.3422 28.7459C11.8622 28.8377 12.5506 28.8836 13.4072 28.8836V32.7382C9.98081 32.7382 7.54872 32.0805 6.11087 30.765C4.70362 29.4495 4 27.201 4 24.0194Z" fill="white"/>
<path d="M22.3339 32.7382H18.2957V14.5663H14.5329L16.3684 10.7117H22.3339V32.7382ZM18.1122 6.12284C17.7145 5.60277 17.5156 5.03681 17.5156 4.42496C17.5156 3.81312 17.7145 3.26245 18.1122 2.77297C18.5099 2.2529 19.1217 1.99287 19.9477 1.99287C20.7737 1.99287 21.3856 2.2529 21.7833 2.77297C22.181 3.26245 22.3798 3.81312 22.3798 4.42496C22.3798 5.03681 22.181 5.60277 21.7833 6.12284C21.3856 6.61232 20.7737 6.85706 19.9477 6.85706C19.1217 6.85706 18.5099 6.61232 18.1122 6.12284Z" fill="white"/>
<path d="M28.4679 0.616211H32.5979V21.725C32.5979 24.1418 33.2097 26.0232 34.4334 27.3693C35.6877 28.6847 37.4009 29.3425 39.573 29.3425C41.8368 29.3425 43.6112 28.7 44.896 27.4151C46.1809 26.0997 46.8234 24.2029 46.8234 21.725C46.8234 19.3693 46.1197 17.5185 44.7125 16.1724C43.3358 14.7958 41.5156 14.1075 39.2517 14.1075C37.3244 14.1075 35.6571 14.6581 34.2499 15.7594V11.6295C35.9325 10.7117 37.7527 10.2528 39.7106 10.2528C42.9534 10.2528 45.6303 11.3083 47.7411 13.4191C49.8826 15.4994 50.9533 18.268 50.9533 21.725C50.9533 25.3655 49.8367 28.1952 47.6035 30.2143C45.4008 32.2029 42.6169 33.1971 39.2517 33.1971C36.0395 33.1971 33.4392 32.157 31.4507 30.0767C29.4622 27.9964 28.4679 25.2125 28.4679 21.725V0.616211Z" fill="white"/>
<path d="M66.5429 10.2528C71.7436 10.467 74.3439 12.6237 74.3439 16.7231C74.3439 21.832 70.9941 24.3865 64.2944 24.3865H62.4129V20.8531H64.6156C66.6653 20.8531 68.0878 20.5472 68.8832 19.9353C69.6786 19.2929 70.0763 18.2374 70.0763 16.769C70.0763 15.8206 69.7245 15.117 69.0209 14.6581C68.3173 14.1686 67.4148 13.9239 66.3134 13.9239C64.1414 13.9239 62.4282 14.6887 61.1739 16.2183C59.9502 17.7479 59.3384 19.5835 59.3384 21.725C59.3384 23.9888 59.9961 25.8243 61.3116 27.2316C62.6577 28.6388 64.4014 29.3425 66.5429 29.3425C68.4702 29.3425 70.0457 28.8683 71.2694 27.9199L74.0227 30.6273C71.9119 32.3405 69.4186 33.1971 66.5429 33.1971C63.0554 33.1971 60.2715 32.1723 58.1912 30.1226C56.1109 28.0729 55.0708 25.4266 55.0708 22.1838C55.0708 18.5739 56.0956 15.6524 58.1453 13.4191C60.195 11.1859 62.9942 10.1304 66.5429 10.2528Z" fill="white"/>
<path d="M78.2391 32.7382V20.2106C78.2391 16.6925 78.8968 14.2604 80.2123 12.9144C80.8548 12.2413 81.6348 11.7365 82.5526 11.4C83.4704 11.0635 84.2658 10.8647 84.9388 10.8035C85.6425 10.7423 86.5908 10.7117 87.7839 10.7117H91.8221V14.5663H86.9579C86.3461 14.5663 85.8719 14.5816 85.5354 14.6122C85.1989 14.6428 84.8012 14.7499 84.3423 14.9334C83.8834 15.117 83.4857 15.4076 83.1492 15.8053C82.5679 16.5395 82.2773 18.008 82.2773 20.2106V32.7382H78.2391Z" fill="white"/>
<path d="M92.4968 14.5663L100.711 6.35228V10.7117H106.906V14.5663H100.711V24.0194C100.711 25.0901 100.879 25.9773 101.216 26.6809C101.583 27.3846 102.103 27.8893 102.776 28.1952C103.449 28.4706 104.076 28.6541 104.657 28.7459C105.269 28.8377 106.019 28.8836 106.906 28.8836V32.7382C103.388 32.7382 100.787 32.0652 99.1048 30.7191C97.4222 29.3731 96.5809 27.1398 96.5809 24.0194V14.5663H92.4968Z" fill="white"/>
<path d="M110.594 10.7117H114.632V22.2297C114.632 24.7077 115.015 26.4362 115.78 27.4151C116.544 28.3941 117.952 28.8836 120.001 28.8836H124.82V10.7117H128.858V31.6369C128.858 35.4609 127.848 38.3366 125.829 40.2639C123.841 42.2219 120.705 43.2008 116.422 43.2008H113.118V39.3462H116.009C121.607 39.3462 124.544 37.1435 124.82 32.7382H120.965C116.957 32.7382 114.219 32.0346 112.751 30.6273C111.313 29.2201 110.594 26.3597 110.594 22.0462V10.7117Z" fill="white"/>
<path d="M51.768 50.1524L57.6923 52.4199V54.544L50.1368 51.21V49.8028L51.768 50.1524ZM57.6923 48.2971L51.768 50.6005L50.1368 50.9142V49.5071L57.6923 46.1819V48.2971Z" fill="white"/>
<path d="M68.313 51.8911H70.0338C69.9442 52.7157 69.7082 53.4536 69.3258 54.1049C68.9433 54.7562 68.4026 55.273 67.7035 55.6554C67.0044 56.0318 66.1321 56.2201 65.0864 56.2201C64.3216 56.2201 63.6255 56.0767 62.9981 55.7899C62.3767 55.503 61.842 55.0967 61.3938 54.5709C60.9457 54.0392 60.5992 53.4028 60.3542 52.6619C60.1152 51.915 59.9957 51.0845 59.9957 50.1703V48.8707C59.9957 47.9565 60.1152 47.129 60.3542 46.3881C60.5992 45.6412 60.9487 45.0019 61.4028 44.4701C61.8629 43.9383 62.4156 43.529 63.0609 43.2422C63.7062 42.9554 64.4322 42.812 65.2388 42.812C66.2247 42.812 67.0582 42.9972 67.7394 43.3677C68.4205 43.7381 68.9493 44.252 69.3258 44.9092C69.7082 45.5605 69.9442 46.3164 70.0338 47.1768H68.313C68.2293 46.5673 68.074 46.0445 67.8469 45.6083C67.6199 45.1662 67.2972 44.8256 66.879 44.5866C66.4607 44.3476 65.914 44.2281 65.2388 44.2281C64.6592 44.2281 64.1483 44.3386 63.7062 44.5597C63.27 44.7808 62.9025 45.0945 62.6038 45.5008C62.311 45.9071 62.0899 46.394 61.9406 46.9617C61.7912 47.5293 61.7165 48.1597 61.7165 48.8528V50.1703C61.7165 50.8096 61.7822 51.4101 61.9137 51.9718C62.0511 52.5334 62.2572 53.0264 62.5321 53.4506C62.8069 53.8748 63.1565 54.2094 63.5807 54.4544C64.0049 54.6934 64.5069 54.8129 65.0864 54.8129C65.8214 54.8129 66.4069 54.6964 66.8431 54.4634C67.2793 54.2304 67.6079 53.8958 67.829 53.4596C68.056 53.0234 68.2174 52.5006 68.313 51.8911Z" fill="white"/>
<path d="M71.7008 51.2996V51.0934C71.7008 50.3944 71.8024 49.7461 72.0056 49.1486C72.2087 48.5451 72.5015 48.0223 72.8839 47.5801C73.2663 47.132 73.7294 46.7854 74.2731 46.5404C74.8168 46.2895 75.4263 46.164 76.1015 46.164C76.7826 46.164 77.3951 46.2895 77.9388 46.5404C78.4885 46.7854 78.9546 47.132 79.337 47.5801C79.7254 48.0223 80.0211 48.5451 80.2243 49.1486C80.4274 49.7461 80.529 50.3944 80.529 51.0934V51.2996C80.529 51.9987 80.4274 52.647 80.2243 53.2445C80.0211 53.842 79.7254 54.3648 79.337 54.8129C78.9546 55.2551 78.4915 55.6016 77.9478 55.8526C77.41 56.0976 76.8006 56.2201 76.1194 56.2201C75.4382 56.2201 74.8258 56.0976 74.2821 55.8526C73.7383 55.6016 73.2723 55.2551 72.8839 54.8129C72.5015 54.3648 72.2087 53.842 72.0056 53.2445C71.8024 52.647 71.7008 51.9987 71.7008 51.2996ZM73.3589 51.0934V51.2996C73.3589 51.7836 73.4157 52.2407 73.5292 52.6709C73.6427 53.0951 73.813 53.4715 74.0401 53.8002C74.2731 54.1288 74.5629 54.3887 74.9095 54.5799C75.256 54.7651 75.6593 54.8577 76.1194 54.8577C76.5735 54.8577 76.9709 54.7651 77.3114 54.5799C77.658 54.3887 77.9448 54.1288 78.1718 53.8002C78.3989 53.4715 78.5692 53.0951 78.6827 52.6709C78.8022 52.2407 78.862 51.7836 78.862 51.2996V51.0934C78.862 50.6154 78.8022 50.1643 78.6827 49.7401C78.5692 49.3099 78.3959 48.9305 78.1629 48.6018C77.9358 48.2672 77.649 48.0043 77.3025 47.8131C76.9619 47.6219 76.5616 47.5263 76.1015 47.5263C75.6474 47.5263 75.247 47.6219 74.9005 47.8131C74.5599 48.0043 74.2731 48.2672 74.0401 48.6018C73.813 48.9305 73.6427 49.3099 73.5292 49.7401C73.4157 50.1643 73.3589 50.6154 73.3589 51.0934Z" fill="white"/>
<path d="M88.7208 54.1587V42.2742H90.3879V56.0408H88.8642L88.7208 54.1587ZM82.1961 51.2996V51.1114C82.1961 50.3705 82.2857 49.6983 82.4649 49.0948C82.6502 48.4853 82.9101 47.9625 83.2447 47.5263C83.5853 47.0901 83.9886 46.7555 84.4546 46.5225C84.9267 46.2835 85.4525 46.164 86.0321 46.164C86.6415 46.164 87.1733 46.2716 87.6274 46.4867C88.0875 46.6958 88.4042 46.877 88.7208 47.2833C88.7208 48.2164 88.7208 48.5094 88.7208 48.9559C88.9061 49.5236 89.0704 50.0217 89.1421 50.7387V51.691C89.0764 52.402 88.7208 53.1628 88.7208 54.1587C88.7925 54.8129 88.7308 54.2888 88.7925 54.9832C88.4759 55.3835 88.0875 55.6913 87.6274 55.9064C87.1673 56.1155 86.6296 56.2201 86.0141 56.2201C85.4465 56.2201 84.9267 56.0976 84.4546 55.8526C83.9886 55.6076 83.5853 55.264 83.2447 54.8219C82.9101 54.3797 82.6502 53.8599 82.4649 53.2624C82.2857 52.6589 82.1961 52.0046 82.1961 51.2996ZM83.8631 51.1114V51.2996C83.8631 51.7836 83.9109 52.2377 84.0065 52.6619C84.1081 53.0861 84.2634 53.4596 84.4726 53.7822C84.6817 54.1049 84.9476 54.3588 85.2702 54.544C85.5929 54.7233 85.9783 54.8129 86.4264 54.8129C86.9761 54.8129 87.4272 54.6964 87.7798 54.4634C88.1383 54.2304 88.4251 53.9226 88.6402 53.5402C88.8553 53.1578 88.945 52.7936 89.0645 52.3454L89.1421 50.7387C89.0704 50.4101 88.9348 49.4962 88.7973 49.1914C88.6659 48.8807 88.5237 48.5988 88.3086 48.3598C88.0994 48.1149 87.8395 47.9207 87.5288 47.7773C87.2241 47.6339 86.8626 47.5622 86.4443 47.5622C85.9902 47.5622 85.5989 47.6578 85.2702 47.849C84.9476 48.0342 84.6817 48.2911 84.4726 48.6198C84.2634 48.9424 84.1081 49.3188 84.0065 49.7491C83.9109 50.1733 83.8631 50.6274 83.8631 51.1114Z" fill="white"/>
<path d="M96.9933 56.2201C96.3181 56.2201 95.7057 56.1065 95.156 55.8795C94.6123 55.6465 94.1432 55.3208 93.7489 54.9026C93.3605 54.4843 93.0617 53.9884 92.8526 53.4148C92.6435 52.8412 92.5389 52.2138 92.5389 51.5326V51.1562C92.5389 50.3675 92.6554 49.6654 92.8885 49.05C93.1215 48.4286 93.4382 47.9028 93.8385 47.4725C94.2388 47.0423 94.6929 46.7167 95.2008 46.4956C95.7087 46.2745 96.2345 46.164 96.7782 46.164C97.4713 46.164 98.0688 46.2835 98.5707 46.5225C99.0786 46.7615 99.4939 47.0961 99.8166 47.5263C100.139 47.9506 100.378 48.4525 100.534 49.032C100.689 49.6056 100.767 50.233 100.767 50.9142V51.6581H93.5248V50.3047H99.1085V50.1793C99.0846 49.7491 98.995 49.3308 98.8396 48.9245C98.6903 48.5182 98.4512 48.1836 98.1226 47.9207C97.794 47.6578 97.3459 47.5263 96.7782 47.5263C96.4018 47.5263 96.0552 47.607 95.7386 47.7683C95.4219 47.9237 95.15 48.1567 94.923 48.4674C94.6959 48.7781 94.5197 49.1575 94.3942 49.6056C94.2687 50.0538 94.206 50.5706 94.206 51.1562V51.5326C94.206 51.9927 94.2687 52.4259 94.3942 52.8322C94.5256 53.2325 94.7138 53.585 94.9588 53.8898C95.2098 54.1945 95.5115 54.4335 95.864 54.6068C96.2225 54.7801 96.6289 54.8667 97.083 54.8667C97.6685 54.8667 98.1644 54.7472 98.5707 54.5082C98.9771 54.2692 99.3326 53.9495 99.6373 53.5492L100.641 54.3469C100.432 54.6635 100.166 54.9653 99.8434 55.2521C99.5208 55.5389 99.1234 55.7719 98.6514 55.9512C98.1854 56.1304 97.6327 56.2201 96.9933 56.2201Z" fill="white"/>
<path d="M108.6 50.5109L102.568 48.2613V46.173L110.312 49.4981V50.9142L108.6 50.5109ZM102.568 52.4468L108.618 50.1524L110.312 49.7939V51.201L102.568 54.5351V52.4468Z" fill="white"/>
</g>
<defs>
<filter id="filter0_d_581_1032" x="0" y="0.616211" width="135.384" height="70.7667" filterUnits="userSpaceOnUse" color-interpolation-filters="sRGB">
<feFlood flood-opacity="0" result="BackgroundImageFix"/>
<feColorMatrix in="SourceAlpha" type="matrix" values="0 0 0 0 0 0 0 0 0 0 0 0 0 0 0 0 0 0 127 0" result="hardAlpha"/>
<feOffset dy="4"/>
<feGaussianBlur stdDeviation="2"/>
<feComposite in2="hardAlpha" operator="out"/>
<feColorMatrix type="matrix" values="0 0 0 0 0 0 0 0 0 0 0 0 0 0 0 0 0 0 0.25 0"/>
<feBlend mode="normal" in2="BackgroundImageFix" result="effect1_dropShadow_581_1032"/>
<feBlend mode="normal" in="SourceGraphic" in2="effect1_dropShadow_581_1032" result="shape"/>
</filter>
</defs>
</svg>
