<svg width="35" height="36" viewBox="0 0 35 36" fill="none" xmlns="http://www.w3.org/2000/svg">
<path d="M6.5625 5.30176V29.3643H19.6875V5.30176H6.5625ZM5.46875 3.11426H20.7812C21.0713 3.11426 21.3495 3.22949 21.5546 3.43461C21.7598 3.63973 21.875 3.91793 21.875 4.20801V30.458C21.875 30.7481 21.7598 31.0263 21.5546 31.2314C21.3495 31.4365 21.0713 31.5518 20.7812 31.5518H5.46875C5.17867 31.5518 4.90047 31.4365 4.69535 31.2314C4.49023 31.0263 4.375 30.7481 4.375 30.458V4.20801C4.375 3.91793 4.49023 3.63973 4.69535 3.43461C4.90047 3.22949 5.17867 3.11426 5.46875 3.11426Z" fill="url(#paint0_linear_161_615)"/>
<path d="M8.75 9.67676H17.5V11.8643H8.75V9.67676ZM8.75 16.2393H17.5V18.4268H8.75V16.2393ZM8.75 22.8018H17.5V24.9893H8.75V22.8018ZM21.875 18.4268H26.25V20.6143H21.875V18.4268ZM21.875 22.8018H26.25V24.9893H21.875V22.8018ZM2.1875 29.3643H32.8125V31.5518H2.1875V29.3643Z" fill="url(#paint1_linear_161_615)"/>
<path d="M21.875 14.0518V29.3643H28.4375V14.0518H21.875ZM20.7812 11.8643H29.5312C29.8213 11.8643 30.0995 11.9795 30.3046 12.1846C30.5098 12.3897 30.625 12.6679 30.625 12.958V30.458C30.625 30.7481 30.5098 31.0263 30.3046 31.2314C30.0995 31.4365 29.8213 31.5518 29.5312 31.5518H20.7812C20.4912 31.5518 20.213 31.4365 20.0079 31.2314C19.8027 31.0263 19.6875 30.7481 19.6875 30.458V12.958C19.6875 12.6679 19.8027 12.3897 20.0079 12.1846C20.213 11.9795 20.4912 11.8643 20.7812 11.8643Z" fill="url(#paint2_linear_161_615)"/>
<defs>
<linearGradient id="paint0_linear_161_615" x1="4.375" y1="3.11426" x2="29.7613" y2="18.7366" gradientUnits="userSpaceOnUse">
<stop stop-color="#69E4A3"/>
<stop offset="0.5625" stop-color="#D2E66A"/>
<stop offset="1" stop-color="#FDE753"/>
</linearGradient>
<linearGradient id="paint1_linear_161_615" x1="2.1875" y1="9.67676" x2="22.8801" y2="38.6464" gradientUnits="userSpaceOnUse">
<stop stop-color="#69E4A3"/>
<stop offset="0.5625" stop-color="#D2E66A"/>
<stop offset="1" stop-color="#FDE753"/>
</linearGradient>
<linearGradient id="paint2_linear_161_615" x1="19.6875" y1="11.8643" x2="36.4033" y2="21.1508" gradientUnits="userSpaceOnUse">
<stop stop-color="#69E4A3"/>
<stop offset="0.5625" stop-color="#D2E66A"/>
<stop offset="1" stop-color="#FDE753"/>
</linearGradient>
</defs>
</svg>
