<svg width="70" height="80" viewBox="0 0 70 80" fill="none" xmlns="http://www.w3.org/2000/svg">
<g clip-path="url(#clip0_161_431)">
<path fill-rule="evenodd" clip-rule="evenodd" d="M60 50.5459H10V0.545898H60V50.5459ZM49.6885 21.7387V17.8607C49.0498 17.5764 45.3925 16.5302 42.5031 17.6327C38.341 19.2208 38.4905 24.005 40.0699 25.8826C42.1163 28.3154 47.2068 29.2225 46.3738 31.6104C45.9425 32.8469 43.9287 33.0621 42.1533 32.647C40.5 32.2604 39.0625 31.2812 39.0625 31.2812V35.3871C39.0625 35.3871 40.4834 36.1793 42.2273 36.3678C44.463 36.6093 47.2653 36.1532 48.6692 34.9054C51.1683 32.684 51.552 27.7631 46.8162 25.478C42.8753 23.5767 42.9401 23.034 42.9678 22.0587C43.0049 20.7524 45.7475 19.9483 49.6885 21.7387ZM28.4365 10.856C31.7155 10.97 36.5344 12.4812 36.5344 18.9253C36.5344 25.3693 30.6385 27.4839 25.2587 27.0231V36.1475H21.251V10.9414C21.251 10.9414 25.1573 10.7419 28.4364 10.856H28.4365ZM29.4772 23.0312C31.2054 22.4007 32.3286 21.0451 32.3286 18.9395C32.3286 16.7069 31.1855 15.1951 29.4373 14.7681C27.5441 14.3055 25.2587 14.5781 25.2587 14.5781V23.3715C25.2587 23.3715 28.4223 23.4162 29.4772 23.0312Z" fill="#56AEFF"/>
</g>
<path d="M8.576 75.5459L7.664 73.0339H2.624L1.712 75.5459H0.128L4.304 64.3459H5.984L10.16 75.5459H8.576ZM3.136 71.6419H7.152L5.136 66.1219L3.136 71.6419ZM17.7738 64.3459H19.1658V75.5459H17.7738V74.1699C17.0804 75.2259 16.0724 75.7539 14.7498 75.7539C13.6298 75.7539 12.6751 75.3486 11.8858 74.5379C11.0964 73.7166 10.7018 72.7192 10.7018 71.5459C10.7018 70.3726 11.0964 69.3806 11.8858 68.5699C12.6751 67.7486 13.6298 67.3379 14.7498 67.3379C16.0724 67.3379 17.0804 67.8659 17.7738 68.9219V64.3459ZM14.9258 74.4099C15.7364 74.4099 16.4138 74.1379 16.9578 73.5939C17.5018 73.0392 17.7738 72.3566 17.7738 71.5459C17.7738 70.7352 17.5018 70.0579 16.9578 69.5139C16.4138 68.9592 15.7364 68.6819 14.9258 68.6819C14.1258 68.6819 13.4538 68.9592 12.9098 69.5139C12.3658 70.0579 12.0938 70.7352 12.0938 71.5459C12.0938 72.3566 12.3658 73.0392 12.9098 73.5939C13.4538 74.1379 14.1258 74.4099 14.9258 74.4099ZM28.0268 74.5379C27.2054 75.3486 26.2081 75.7539 25.0348 75.7539C23.8614 75.7539 22.8641 75.3486 22.0428 74.5379C21.2321 73.7272 20.8268 72.7299 20.8268 71.5459C20.8268 70.3619 21.2321 69.3646 22.0428 68.5539C22.8641 67.7432 23.8614 67.3379 25.0348 67.3379C26.2081 67.3379 27.2054 67.7432 28.0268 68.5539C28.8481 69.3646 29.2587 70.3619 29.2587 71.5459C29.2587 72.7299 28.8481 73.7272 28.0268 74.5379ZM25.0348 74.3939C25.8348 74.3939 26.5068 74.1219 27.0508 73.5779C27.5948 73.0339 27.8668 72.3566 27.8668 71.5459C27.8668 70.7352 27.5948 70.0579 27.0508 69.5139C26.5068 68.9699 25.8348 68.6979 25.0348 68.6979C24.2454 68.6979 23.5788 68.9699 23.0348 69.5139C22.4908 70.0579 22.2188 70.7352 22.2188 71.5459C22.2188 72.3566 22.4908 73.0339 23.0348 73.5779C23.5788 74.1219 24.2454 74.3939 25.0348 74.3939ZM35.3158 67.3379C36.4358 67.3379 37.3904 67.7486 38.1798 68.5699C38.9691 69.3806 39.3638 70.3726 39.3638 71.5459C39.3638 72.7192 38.9691 73.7166 38.1798 74.5379C37.3904 75.3486 36.4358 75.7539 35.3158 75.7539C33.9931 75.7539 32.9851 75.2259 32.2918 74.1699V75.5459H30.8997V64.3459H32.2918V68.9219C32.9851 67.8659 33.9931 67.3379 35.3158 67.3379ZM35.1398 74.4099C35.9398 74.4099 36.6118 74.1379 37.1558 73.5939C37.6998 73.0392 37.9718 72.3566 37.9718 71.5459C37.9718 70.7352 37.6998 70.0579 37.1558 69.5139C36.6118 68.9592 35.9398 68.6819 35.1398 68.6819C34.3291 68.6819 33.6518 68.9592 33.1078 69.5139C32.5638 70.0579 32.2918 70.7352 32.2918 71.5459C32.2918 72.3566 32.5638 73.0392 33.1078 73.5939C33.6518 74.1379 34.3291 74.4099 35.1398 74.4099ZM42.0008 72.1859C42.1394 72.9006 42.4648 73.4552 42.9768 73.8499C43.4994 74.2446 44.1394 74.4419 44.8968 74.4419C45.9528 74.4419 46.7208 74.0526 47.2008 73.2739L48.3848 73.9459C47.6061 75.1512 46.4328 75.7539 44.8648 75.7539C43.5954 75.7539 42.5608 75.3592 41.7608 74.5699C40.9714 73.7699 40.5768 72.7619 40.5768 71.5459C40.5768 70.3406 40.9661 69.3379 41.7448 68.5379C42.5234 67.7379 43.5314 67.3379 44.7688 67.3379C45.9421 67.3379 46.8968 67.7539 47.6328 68.5859C48.3794 69.4072 48.7528 70.3992 48.7528 71.5619C48.7528 71.7646 48.7368 71.9726 48.7048 72.1859H42.0008ZM44.7688 68.6499C44.0221 68.6499 43.4034 68.8632 42.9128 69.2899C42.4221 69.7059 42.1181 70.2659 42.0008 70.9699H47.3448C47.2274 70.2126 46.9288 69.6366 46.4488 69.2419C45.9688 68.8472 45.4088 68.6499 44.7688 68.6499ZM58.5609 64.3459C59.5955 64.3459 60.4542 64.6926 61.1369 65.3859C61.8302 66.0686 62.1769 66.9219 62.1769 67.9459C62.1769 68.9592 61.8302 69.8126 61.1369 70.5059C60.4542 71.1992 59.5955 71.5459 58.5609 71.5459H55.9849V75.5459H54.4969V64.3459H58.5609ZM58.5609 70.1539C59.1795 70.1539 59.6915 69.9459 60.0969 69.5299C60.5022 69.1032 60.7049 68.5752 60.7049 67.9459C60.7049 67.3059 60.5022 66.7779 60.0969 66.3619C59.6915 65.9459 59.1795 65.7379 58.5609 65.7379H55.9849V70.1539H58.5609ZM64.4904 69.7059C64.4904 70.0152 64.645 70.2659 64.9544 70.4579C65.2637 70.6392 65.637 70.7886 66.0744 70.9059C66.5117 71.0126 66.949 71.1406 67.3864 71.2899C67.8237 71.4286 68.197 71.6739 68.5064 72.0259C68.8157 72.3672 68.9704 72.8099 68.9704 73.3539C68.9704 74.0792 68.6877 74.6606 68.1224 75.0979C67.5677 75.5352 66.853 75.7539 65.9784 75.7539C65.1997 75.7539 64.533 75.5832 63.9784 75.2419C63.4237 74.9006 63.029 74.4472 62.7944 73.8819L63.9944 73.1939C64.1224 73.5779 64.3624 73.8819 64.7144 74.1059C65.0664 74.3299 65.4877 74.4419 65.9784 74.4419C66.437 74.4419 66.8157 74.3566 67.1144 74.1859C67.413 74.0046 67.5624 73.7272 67.5624 73.3539C67.5624 73.0446 67.4077 72.7992 67.0984 72.6179C66.789 72.4259 66.4157 72.2766 65.9784 72.1699C65.541 72.0526 65.1037 71.9192 64.6664 71.7699C64.229 71.6206 63.8557 71.3752 63.5464 71.0339C63.237 70.6926 63.0824 70.2552 63.0824 69.7219C63.0824 69.0286 63.349 68.4579 63.8824 68.0099C64.4264 67.5619 65.1037 67.3379 65.9144 67.3379C66.565 67.3379 67.141 67.4872 67.6424 67.7859C68.1544 68.0739 68.5384 68.4792 68.7944 69.0019L67.6264 69.6579C67.3384 68.9752 66.7677 68.6339 65.9144 68.6339C65.5197 68.6339 65.1837 68.7299 64.9064 68.9219C64.629 69.1032 64.4904 69.3646 64.4904 69.7059Z" fill="white" fill-opacity="0.68"/>
<defs>
<clipPath id="clip0_161_431">
<rect width="50" height="50" fill="white" transform="translate(10 0.545898)"/>
</clipPath>
</defs>
</svg>
