<svg width="42" height="43" viewBox="0 0 42 43" fill="none" xmlns="http://www.w3.org/2000/svg">
<path d="M19.25 11.191V34.5675C19.2495 35.2928 18.993 35.9946 18.5258 36.5494C18.0585 37.1042 17.4105 37.4762 16.6958 37.6001C15.9811 37.7239 15.2457 37.5915 14.619 37.2263C13.9924 36.861 13.5147 36.2863 13.2703 35.6035L9.513 24.841M9.513 24.841C8.02764 24.2094 6.80608 23.0858 6.05506 21.6571C5.30404 20.2284 5.06968 18.5842 5.39164 17.0025C5.71361 15.4209 6.57212 13.9991 7.82189 12.9777C9.07167 11.9563 10.6359 11.3981 12.25 11.3975H15.456C22.631 11.3975 28.7998 9.23796 31.5 6.14746V30.6475C28.7998 27.557 22.6328 25.3975 15.456 25.3975H12.25C11.3096 25.3988 10.3786 25.2084 9.513 24.841ZM31.5 23.6475C32.8924 23.6475 34.2277 23.0943 35.2123 22.1098C36.1969 21.1252 36.75 19.7898 36.75 18.3975C36.75 17.0051 36.1969 15.6697 35.2123 14.6852C34.2277 13.7006 32.8924 13.1475 31.5 13.1475V23.6475Z" stroke="url(#paint0_linear_161_471)" stroke-width="2" stroke-linecap="round" stroke-linejoin="round"/>
<defs>
<linearGradient id="paint0_linear_161_471" x1="5.25092" y1="6.14746" x2="36.7487" y2="37.6465" gradientUnits="userSpaceOnUse">
<stop stop-color="#69E4A3"/>
<stop offset="0.5625" stop-color="#D2E66A"/>
<stop offset="1" stop-color="#FDE753"/>
</linearGradient>
</defs>
</svg>
