<svg width="35" height="36" viewBox="0 0 35 36" fill="none" xmlns="http://www.w3.org/2000/svg">
<path d="M32.0755 18.4251V18.4178C32.0755 14.1043 30.1975 10.2306 27.2154 7.56669L27.2008 7.55454C27.164 7.51484 27.1228 7.47939 27.0781 7.44886L27.0757 7.44765C24.4271 5.1221 21.021 3.84277 17.4964 3.84964C13.8133 3.84964 10.451 5.21741 7.8879 7.47437L7.90369 7.46101C7.8728 7.48444 7.84431 7.51089 7.81866 7.53997V7.54118C6.27781 8.90555 5.04446 10.5817 4.20031 12.4587C3.35616 14.3357 2.92047 16.3707 2.92211 18.4287C2.92211 22.741 4.79764 26.6148 7.77736 29.2799L7.79193 29.292C7.83052 29.3358 7.87369 29.3753 7.92069 29.4098L7.92312 29.4111C10.571 31.7332 13.9745 33.0106 17.4964 33.0042C21.0347 33.0096 24.4527 31.7204 27.106 29.3795L27.0902 29.3928C28.6578 28.03 29.9143 26.3463 30.7748 24.4558C31.6353 22.5653 32.0797 20.512 32.0779 18.4348V18.4263L32.0755 18.4251ZM26.6554 27.906C25.9333 27.3219 25.1568 26.8086 24.3365 26.373L24.2575 26.3342C25.0021 24.1877 25.4504 21.7134 25.4929 19.1394V19.1199H30.6688C30.4943 22.45 29.061 25.5893 26.659 27.9024L26.6554 27.906ZM18.1936 26.0779C19.7521 26.1617 21.2086 26.5042 22.552 27.0618L22.4646 27.0302C21.3883 29.4839 19.8736 31.17 18.1936 31.5405V26.0779ZM18.1936 24.6882V19.1199H24.1069C24.06 21.4258 23.6601 23.7109 22.9213 25.8956L22.9687 25.7365C21.4606 25.1167 19.8565 24.7624 18.2276 24.6894L18.1948 24.6882H18.1936ZM18.1936 17.7303V12.162C19.8665 12.0856 21.5134 11.7194 23.061 11.0797L22.965 11.1149C23.6392 13.0815 24.0534 15.3482 24.1069 17.7048V17.7303H18.1936ZM18.1936 10.7723V5.31216C19.8736 5.68265 21.3883 7.3614 22.4646 9.82243C21.2086 10.3448 19.7521 10.6861 18.2288 10.7711L18.1936 10.7723ZM21.6604 5.91345C23.0918 6.39088 24.4305 7.11076 25.618 8.04165L25.5901 8.01978C25.0519 8.4425 24.4482 8.84093 23.8117 9.18713L23.7437 9.22114C23.2293 8.0073 22.5222 6.88459 21.6495 5.89645L21.6604 5.90981V5.91345ZM16.8015 5.31581V10.7723C15.3032 10.6959 13.829 10.3631 12.4431 9.78842L12.5306 9.82C13.6117 7.36626 15.124 5.68144 16.804 5.31095L16.8015 5.31581ZM11.2527 9.2175C10.5942 8.86323 9.96681 8.45404 9.37715 7.99427L9.4063 8.01614C10.5592 7.11257 11.8561 6.40954 13.2424 5.93653L13.3347 5.90859C12.4849 6.86997 11.7925 7.95967 11.283 9.13733L11.2527 9.21628V9.2175ZM16.804 12.1608V17.7291H10.8907C10.9441 15.347 11.3584 13.0803 12.0799 10.9546L12.0325 11.1137C13.5401 11.7325 15.1432 12.0864 16.7712 12.1596L16.804 12.1608ZM16.804 19.1187V24.687C15.1311 24.7633 13.4842 25.1296 11.9366 25.7693L12.0325 25.7341C11.3584 23.7687 10.9441 21.5008 10.8907 19.1442V19.1187H16.804ZM16.804 26.0766V31.5368C15.124 31.1663 13.6092 29.4876 12.533 27.0266C13.789 26.5042 15.2455 26.1641 16.7687 26.0791L16.804 26.0779V26.0766ZM13.342 30.9355C11.911 30.4595 10.5724 29.7413 9.38444 28.8122L9.41359 28.8341C9.95171 28.4113 10.5554 28.0129 11.1919 27.6667L11.26 27.6327C11.77 28.847 12.4772 29.9688 13.3529 30.9525L13.342 30.9404V30.9355ZM23.7449 27.6315C24.4494 28.0141 25.0532 28.4113 25.6204 28.8547L25.5913 28.8328C24.4383 29.7364 23.1415 30.4394 21.7552 30.9125L21.6629 30.9404C22.5127 29.9795 23.2051 28.8902 23.7145 27.7129L23.7449 27.6339V27.6315ZM30.6688 17.7303H25.4929C25.4556 15.217 25.0219 12.7253 24.2077 10.3472L24.2575 10.5148C25.1156 10.063 25.928 9.5293 26.6833 8.92111L26.6542 8.94297C29.0511 11.2473 30.485 14.375 30.6664 17.6951L30.6676 17.7291L30.6688 17.7303ZM8.3422 8.94419C9.04188 9.51268 9.82781 10.0338 10.6611 10.4772L10.7401 10.516C9.99544 12.6625 9.54721 15.1368 9.50469 17.7108V17.7303H4.32754C4.50209 14.4002 5.93541 11.2609 8.33735 8.94783L8.34099 8.94419H8.3422ZM4.32876 19.1199H9.50469C9.54193 21.6332 9.97566 24.1249 10.7899 26.503L10.7401 26.3354C9.82781 26.8201 9.0431 27.3412 8.31427 27.9291L8.34342 27.9072C5.94645 25.6029 4.51262 22.4752 4.33119 19.1551L4.32997 19.1211L4.32876 19.1199Z" fill="url(#paint0_linear_161_629)"/>
<defs>
<linearGradient id="paint0_linear_161_629" x1="2.9221" y1="3.84961" x2="32.0767" y2="33.0054" gradientUnits="userSpaceOnUse">
<stop stop-color="#69E4A3"/>
<stop offset="0.5625" stop-color="#D2E66A"/>
<stop offset="1" stop-color="#FDE753"/>
</linearGradient>
</defs>
</svg>
