<svg width="75" height="80" viewBox="0 0 75 80" fill="none" xmlns="http://www.w3.org/2000/svg">
<g clip-path="url(#clip0_161_395)">
<path d="M12.5 0.545898V50.5459H62.5V0.545898H12.5ZM33.7439 36.4372L29.1211 26.9102L24.6608 36.4145H20.3138L26.711 24.2271L20.5258 11.9033H25.0377L29.4168 21.2712L33.7592 11.8806H37.9945L31.8042 23.8405L38.3601 36.4372H33.7438H33.7439ZM53.5642 35.4367C51.6542 36.3463 49.6532 36.7556 47.7433 36.7556C42.8093 36.7783 39.285 33.7314 39.285 27.5468C39.4455 21.2112 43.667 17.676 49.5851 18.1562V11.9033H53.6323V32.9584C53.6407 35.4694 53.9179 35.2279 53.5642 35.4367ZM49.585 21.726V32.9811C45.5901 34.0177 43.3813 31.5865 43.4004 27.3648C43.4154 23.0354 46.26 20.7884 49.585 21.726Z" fill="#A854D4"/>
</g>
<path d="M8.576 75.5459L7.664 73.0339H2.624L1.712 75.5459H0.128L4.304 64.3459H5.984L10.16 75.5459H8.576ZM3.136 71.6419H7.152L5.136 66.1219L3.136 71.6419ZM17.7738 64.3459H19.1658V75.5459H17.7738V74.1699C17.0804 75.2259 16.0724 75.7539 14.7498 75.7539C13.6298 75.7539 12.6751 75.3486 11.8858 74.5379C11.0964 73.7166 10.7018 72.7192 10.7018 71.5459C10.7018 70.3726 11.0964 69.3806 11.8858 68.5699C12.6751 67.7486 13.6298 67.3379 14.7498 67.3379C16.0724 67.3379 17.0804 67.8659 17.7738 68.9219V64.3459ZM14.9258 74.4099C15.7364 74.4099 16.4138 74.1379 16.9578 73.5939C17.5018 73.0392 17.7738 72.3566 17.7738 71.5459C17.7738 70.7352 17.5018 70.0579 16.9578 69.5139C16.4138 68.9592 15.7364 68.6819 14.9258 68.6819C14.1258 68.6819 13.4538 68.9592 12.9098 69.5139C12.3658 70.0579 12.0938 70.7352 12.0938 71.5459C12.0938 72.3566 12.3658 73.0392 12.9098 73.5939C13.4538 74.1379 14.1258 74.4099 14.9258 74.4099ZM28.0268 74.5379C27.2054 75.3486 26.2081 75.7539 25.0348 75.7539C23.8614 75.7539 22.8641 75.3486 22.0428 74.5379C21.2321 73.7272 20.8268 72.7299 20.8268 71.5459C20.8268 70.3619 21.2321 69.3646 22.0428 68.5539C22.8641 67.7432 23.8614 67.3379 25.0348 67.3379C26.2081 67.3379 27.2054 67.7432 28.0268 68.5539C28.8481 69.3646 29.2587 70.3619 29.2587 71.5459C29.2587 72.7299 28.8481 73.7272 28.0268 74.5379ZM25.0348 74.3939C25.8348 74.3939 26.5068 74.1219 27.0508 73.5779C27.5948 73.0339 27.8668 72.3566 27.8668 71.5459C27.8668 70.7352 27.5948 70.0579 27.0508 69.5139C26.5068 68.9699 25.8348 68.6979 25.0348 68.6979C24.2454 68.6979 23.5788 68.9699 23.0348 69.5139C22.4908 70.0579 22.2188 70.7352 22.2188 71.5459C22.2188 72.3566 22.4908 73.0339 23.0348 73.5779C23.5788 74.1219 24.2454 74.3939 25.0348 74.3939ZM35.3158 67.3379C36.4358 67.3379 37.3904 67.7486 38.1798 68.5699C38.9691 69.3806 39.3638 70.3726 39.3638 71.5459C39.3638 72.7192 38.9691 73.7166 38.1798 74.5379C37.3904 75.3486 36.4358 75.7539 35.3158 75.7539C33.9931 75.7539 32.9851 75.2259 32.2918 74.1699V75.5459H30.8997V64.3459H32.2918V68.9219C32.9851 67.8659 33.9931 67.3379 35.3158 67.3379ZM35.1398 74.4099C35.9398 74.4099 36.6118 74.1379 37.1558 73.5939C37.6998 73.0392 37.9718 72.3566 37.9718 71.5459C37.9718 70.7352 37.6998 70.0579 37.1558 69.5139C36.6118 68.9592 35.9398 68.6819 35.1398 68.6819C34.3291 68.6819 33.6518 68.9592 33.1078 69.5139C32.5638 70.0579 32.2918 70.7352 32.2918 71.5459C32.2918 72.3566 32.5638 73.0392 33.1078 73.5939C33.6518 74.1379 34.3291 74.4099 35.1398 74.4099ZM42.0008 72.1859C42.1394 72.9006 42.4648 73.4552 42.9768 73.8499C43.4994 74.2446 44.1394 74.4419 44.8968 74.4419C45.9528 74.4419 46.7208 74.0526 47.2008 73.2739L48.3848 73.9459C47.6061 75.1512 46.4328 75.7539 44.8648 75.7539C43.5954 75.7539 42.5608 75.3592 41.7608 74.5699C40.9714 73.7699 40.5768 72.7619 40.5768 71.5459C40.5768 70.3406 40.9661 69.3379 41.7448 68.5379C42.5234 67.7379 43.5314 67.3379 44.7688 67.3379C45.9421 67.3379 46.8968 67.7539 47.6328 68.5859C48.3794 69.4072 48.7528 70.3992 48.7528 71.5619C48.7528 71.7646 48.7368 71.9726 48.7048 72.1859H42.0008ZM44.7688 68.6499C44.0221 68.6499 43.4034 68.8632 42.9128 69.2899C42.4221 69.7059 42.1181 70.2659 42.0008 70.9699H47.3448C47.2274 70.2126 46.9288 69.6366 46.4488 69.2419C45.9688 68.8472 45.4088 68.6499 44.7688 68.6499ZM62.4649 75.5459H60.7689L58.0169 71.1299L55.2649 75.5459H53.5849L57.1849 69.7859L53.7929 64.3459H55.4729L58.0169 68.4259L60.5609 64.3459H62.2409L58.8649 69.7699L62.4649 75.5459ZM68.3024 64.3459C69.8277 64.3459 71.0917 64.8899 72.0944 65.9779C73.1077 67.0552 73.6144 68.3779 73.6144 69.9459C73.6144 71.5139 73.1077 72.8419 72.0944 73.9299C71.0917 75.0072 69.8277 75.5459 68.3024 75.5459H63.9344V64.3459H68.3024ZM68.3024 74.1379C69.4437 74.1379 70.377 73.7379 71.1024 72.9379C71.8277 72.1379 72.1904 71.1406 72.1904 69.9459C72.1904 68.7512 71.8277 67.7539 71.1024 66.9539C70.377 66.1539 69.4437 65.7539 68.3024 65.7539H65.4224V74.1379H68.3024Z" fill="white" fill-opacity="0.68"/>
<defs>
<clipPath id="clip0_161_395">
<rect width="50" height="50" fill="white" transform="translate(12.5 0.545898)"/>
</clipPath>
</defs>
</svg>
